<svg id="Layer_1" data-name="Layer 1" xmlns="http://www.w3.org/2000/svg" viewBox="0 0 454.89 121.95">
  <g>
    <g>
      <polygon points="19.16 38.15 19.16 38.15 0 57.31 19.16 57.31 38.32 57.31 38.32 38.15 19.16 38.15" fill="#f7ad39"/>
      <path d="M114.19,38.5c0-.12-.11-.23-.16-.35H57.48V57.31h60.46A56.45,56.45,0,0,0,114.19,38.5Z" fill="#f7ad39"/>
      <path d="M140.77,57.31H117.94c0,1.2.08,2.42.08,3.66q0,13.25-3.83,22.57a28.21,28.21,0,0,1-12.72,14.28q-8.88,5-24.21,5H57.48L76.65,122H78.3q21.44,0,35.28-7.58a47.74,47.74,0,0,0,20.56-21.25q6.71-13.68,6.71-32.15C140.85,59.73,140.81,58.52,140.77,57.31Z" fill="#f05a27"/>
      <path d="M134.14,28.83A47.74,47.74,0,0,0,113.58,7.58Q101.4.9,83.34.11C81.7,0,80,0,78.3,0H57.4l-19,19H77.26q13.06,0,21.45,3.68c1,.43,1.89.87,2.76,1.37A28.62,28.62,0,0,1,114,38.15h23.71A61.22,61.22,0,0,0,134.14,28.83Z" fill="#f05a27"/>
      <polygon points="38.32 57.31 38.32 77.33 38.32 81.49 38.32 83.63 57.48 102.79 57.48 58.17 57.48 57.31 38.32 57.31" fill="#f7ad39"/>
    </g>
    <g>
      <path d="M219.5,33.25a4.66,4.66,0,0,0-3.3,8,4.67,4.67,0,1,0,6.6-6.6A4.49,4.49,0,0,0,219.5,33.25Z" fill="#fff"/>
      <rect x="215.64" y="48.53" width="7.72" height="37.91" fill="#fff"/>
      <path d="M280.18,33.25a4.67,4.67,0,0,0-3.3,8,4.67,4.67,0,1,0,6.6-6.6A4.46,4.46,0,0,0,280.18,33.25Z" fill="#fff"/>
      <rect x="276.32" y="48.53" width="7.72" height="37.91" fill="#fff"/>
      <path d="M451.15,51.2a13.81,13.81,0,0,0-9.91-3.56q-7.71,0-11.2,5.41-3-5.41-10.09-5.41-6.52,0-9.57,4.38V48.53h-7.72V86.44h7.72V64.11a9.88,9.88,0,0,1,2.15-6.79A7,7,0,0,1,418,54.91q7,0,7,8.83v22.7h7.72V64.11a9.83,9.83,0,0,1,2.15-6.79,6.93,6.93,0,0,1,5.41-2.41q7,0,7,8.83v22.7h7.71V62Q454.89,54.76,451.15,51.2Z" fill="#fff"/>
      <path d="M196.72,51.2a11.45,11.45,0,0,0-7.16-3.45,17.79,17.79,0,0,0-1.82-.11,14,14,0,0,0-11.38,5.3Q172,58.25,172,67.45T176.28,82a14,14,0,0,0,11.46,5.31q5.79,0,9-3.56v2.67h7.72V32.87l-7.72,7.72Zm0,24.55a8.76,8.76,0,0,1-4.07,3.59,9.77,9.77,0,0,1-3.79.72,7.73,7.73,0,0,1-6.68-3.49,15.56,15.56,0,0,1-2.45-9.12c0-.35,0-.68,0-1q.18-5.28,2.35-8.27a7.85,7.85,0,0,1,6.75-3.26,9.16,9.16,0,0,1,4.78,1.22,8.89,8.89,0,0,1,3.08,2.93Z" fill="#fff"/>
      <path d="M305.48,32.87l-7.72,7.72v7.94H291.9v6.68h5.86v22.7q0,9.42,8.46,9.42a18.43,18.43,0,0,0,3.37-.32,16.32,16.32,0,0,0,4.24-1.37V79a10.18,10.18,0,0,1-4.64,1.24c-2.48,0-3.71-1.44-3.71-4.31V55.21h9V48.53h-9Z" fill="#fff"/>
      <path d="M257.41,51v.23a11.67,11.67,0,0,0-1.88-1.58,12.44,12.44,0,0,0-7.1-2A14,14,0,0,0,237,52.94q-4.33,5.31-4.34,14.51a34.77,34.77,0,0,0,.31,4.7,19,19,0,0,0,4.07,10,14,14,0,0,0,11.2,5.16q5.94,0,9.13-3.93v3.34a7,7,0,0,1-3.08,6q-3.06,2.16-10.81,2.62l5.74,5.75q7.61-.93,11.48-4.4,4.38-3.95,4.38-12.69V48.53h-7.71Zm0,24.64a8.52,8.52,0,0,1-7.72,4.45,8,8,0,0,1-6.79-3.41c-1.66-2.28-2.48-5.35-2.48-9.2a28.38,28.38,0,0,1,.14-2.86,13.15,13.15,0,0,1,2.23-6.45,8,8,0,0,1,6.9-3.23c.18,0,.35,0,.52,0a8.9,8.9,0,0,1,3.89,1.16,9,9,0,0,1,3.31,3.11Z" fill="#fff"/>
      <path d="M338,47.64q-7.86,0-12.53,5.27t-4.68,14.54a27.54,27.54,0,0,0,1.08,8A17.53,17.53,0,0,0,325.4,82Q330,87.33,338,87.33q8.36,0,12.95-5.45l-5.11-5.12a9.41,9.41,0,0,1-7.76,3.74,9.16,9.16,0,0,1-6.64-2.82,10.08,10.08,0,0,1-2.93-7.34H354a31.89,31.89,0,0,0,.29-5q0-8.69-4.59-13.21A16.06,16.06,0,0,0,338,47.64Zm-4.82,16.47h-4.67c.19-3.32,1.17-5.75,2.93-7.31A9.5,9.5,0,0,1,338,54.46a8.47,8.47,0,0,1,6,2.38q2.52,2.37,2.6,7.27Z" fill="#fff"/>
      <path d="M387.38,50a14.94,14.94,0,0,0-4.52-1.86,24.13,24.13,0,0,0-5.05-.48q-8.42,0-14.11,3.89l4.79,4.79a18.32,18.32,0,0,1,8.28-1.86c2.82,0,4.87.6,6.16,1.78s1.93,3.19,1.93,6v2.08a18.2,18.2,0,0,0-9.35-2.23c-.4,0-.8,0-1.19,0a16.32,16.32,0,0,0-9.12,3.15Q361,68.49,361,74.64T364.72,84a14.2,14.2,0,0,0,9.75,3.3,13.78,13.78,0,0,0,10.39-4.16v3.27h7.42V61.88a19.19,19.19,0,0,0-1.3-7.49A9.06,9.06,0,0,0,387.38,50Zm-2.52,22.71v3.73a11.55,11.55,0,0,1-9,4.08A8.71,8.71,0,0,1,370.32,79a5.23,5.23,0,0,1-1.93-4.31,4.82,4.82,0,0,1,2.34-4.41,11.25,11.25,0,0,1,6-1.45,18.93,18.93,0,0,1,4.76.58,15.52,15.52,0,0,1,3.33,1.28Z" fill="#fff"/>
    </g>
  </g>
</svg>
