<svg data-name="Isolation Mode" xmlns="http://www.w3.org/2000/svg" viewBox="0 0 180 180">
  <path d="M0 0v75.87l6.75-15.73h11.67L22.25 69v-8.86h14.5L39 66.51l2.21-6.37h65.12v3.2a14 14 0 019-3.2l21.12.07 3.77 8.7v-8.77h12.14l3.34 5v-5H168V88.4h-12.22l-3.2-5v5h-17.84L133 83.94h-4.8l-1.76 4.46h-12.1a11.93 11.93 0 01-7.93-3.14v3.14H88.12l-3.62-4.46v4.46H16.69l-1.79-4.46h-4.78L8.34 88.4H0V180h180v-56.52a12.56 12.56 0 01-6.13 2h-60.13l-3.62-4.48v4.46H98.26v-7.6a10 10 0 01-5.13 1.06h-4v6.54h-18l-3.21-4.28-3.25 4.28H34.94V97.17h29.92l3.21 4.18 3.32-4.18H180V0z" fill="#c6c6c6"/>
  <path d="M19.07 84.78h6.06L16 63.62H9.14L0 84.78h6l1.68-4.23h9.72zM9.52 76l3-7.4 3 7.4zM31.04 69.19l5.63 15.59h4.64l5.6-15.59v15.59h5.29V63.62h-8.35l-4.78 13.67-4.9-13.64-8.42-.03v21.16h5.29V69.19zM73.09 80.19H61.17v-3.76h11.64v-4.46H61.17v-3.62h11.92v-4.73H55.82v21.16h17.27v-4.59zM81.44 77.27h2.23L90 84.78h6.46l-7-7.79a6.45 6.45 0 005.81-6.5c0-4.45-3.5-6.87-7.4-6.87H76.15v21.16h5.29zm0-8.91h6A2.42 2.42 0 0190 70.58a2.39 2.39 0 01-2.43 2.23h-6.13zM97.48 63.62h5.4v21.16h-5.4zM114.52 84.78h1.16l2.23-4.62h-1.39c-3.37 0-5.71-1.72-5.71-5.82 0-3.45 2-5.71 4.94-5.71h6.06v-5H116c-7.12 0-10.51 4.47-10.51 10.67-.04 6.04 3.39 10.48 9.03 10.48zM124 84.78l1.68-4.23h9.76l1.67 4.23h6.06l-9.07-21.16h-6.9l-9.11 21.16zm6.54-16.23l3 7.4h-6zM149.09 71.14l8.81 13.64h6.51V63.62h-5.29v13.29l-8.59-13.29h-6.72v21.16h5.28V71.14zM38.56 121.81h17.26v-4.59H43.91v-3.76h11.64V109H43.91v-3.62h11.91v-4.73H38.56v21.16zM140.41 117.22h-11.92v-3.76h11.58V109h-11.58v-3.62h11.92v-4.73h-17.26v21.16h17.26v-4.59zM62.96 100.65h-6.67l8.61 10.71-8.41 10.45h6.57l4.86-6.52 4.97 6.52h6.67l-8.42-10.58 8.49-10.58h-6.41l-5.14 6.62-5.12-6.62zM85.62 115.13h5.56c4.72 0 8.29-2.5 8.29-7.36 0-4-2.8-7.12-7.6-7.12H80.19v21.16h5.43zm0-9.69h5.86a2.39 2.39 0 012.61 2.44 2.44 2.44 0 01-2.63 2.43h-5.84zM107.05 114.29h2.23l6.34 7.52h6.47l-7-7.8a6.44 6.44 0 005.8-6.5c0-4.45-3.49-6.86-7.39-6.86h-11.74v21.16h5.29zm0-8.91h6a2.44 2.44 0 012.51 2.23 2.39 2.39 0 01-2.43 2.23H107zM148.66 113.65h4.79c1.56 0 2.24.9 2.24 1.79s-.68 1.78-2.24 1.78h-10.59v4.59h11.27c4.66 0 6.9-3 6.9-6.73 0-3.45-2-6.08-6.64-6.08h-5a1.84 1.84 0 01-2-1.84c0-.86.53-1.75 2.23-1.75h8.91l2.23-4.76h-10.3c-6.18 0-8.3 3.27-8.3 6.66.03 3.81 2.34 6.34 6.5 6.34zM161.6 107.31c0 3.81 2.32 6.34 6.48 6.34h4.33c1.57 0 2.25.9 2.25 1.79s-.68 1.78-2.25 1.78h-10.14v4.59h10.83c4.66 0 6.9-3 6.9-6.73 0-3.45-2-6.08-6.65-6.08h-4.56a1.84 1.84 0 01-1.95-1.84c0-.86.52-1.75 2.23-1.75h8.7l2.23-4.76h-10.1c-6.18 0-8.3 3.27-8.3 6.66z" fill="#c6c6c6"/>
</svg>