<svg data-name="Layer 1" xmlns="http://www.w3.org/2000/svg" viewBox="0 0 720 145.15">
  <g fill="#c6c6c6">
    <path d="M181.09 42.61h38l14 53h1a111.76 111.76 0 012.56-13.39l11.46-39.62h37.62l16.73 100.93h-35.74l-5-55.29h-.68a84.39 84.39 0 01-2.42 10l-14.7 45.25h-21.56l-13.22-42.7a68.67 68.67 0 01-2.3-12.59h-1.2c-.28 4-.55 8.17-.94 12.19l-4.33 43.1h-35.74z"/>
    <path d="M332.73 143.54h-39.1L329 42.61h40.86l36.24 100.93H367L363.61 131H335.7zM357.14 107l-4.31-17.81c-1.08-4.28-1.76-8.7-2.43-13h-1.35L342.31 107zM506.54 84.11c-.27 16.46-.27 30.25-12.28 43.1-10.78 11.65-27.36 17.94-43.15 17.94-31 0-56.09-19-56.09-51.41C395 60.81 419.42 41 451.39 41c17.66 0 41.94 8.71 49.9 26l-34.53 12.56c-2.82-5.09-8.09-7.77-14-7.77-13.22 0-20.5 11.24-20.5 23.43 0 11.1 7 21.55 19 21.55 5.79 0 13.2-2.68 15-8.83H449.5V84.11zM509.3 42.61h35.47l33.17 56H579c-1.49-8.44-3.11-17.15-3.11-25.71V42.61h35.33v100.93h-35.3l-32.5-53h-1.07c1.2 7 2.28 13.53 2.28 20.21v32.8H509.3z"/>
    <path d="M646.65 143.54h-39.1l35.32-100.93h40.86L720 143.54h-39.1L677.54 131h-27.93zm24.4-36.54l-4.32-17.81c-1.07-4.28-1.74-8.7-2.41-13H663L656.22 107z"/>
  </g>
  <path d="M82.29 0a18.48 18.48 0 1018.61 18.48A18.54 18.54 0 0082.29 0" fill="#c6c6c6"/>
  <g fill="#c6c6c6">
    <path d="M108.27 143.64l38.32.01-36.9-100.77H81.65L76.49 56.9l31.78 86.74zM0 143.64l57.11-.01-28.56-77.82L0 143.64zM63.59 143.64l38.31.01L64.99 42.88H36.96L31.81 56.9l31.78 86.74z"/>
  </g>
</svg>