<svg xmlns="http://www.w3.org/2000/svg" viewBox="0 0 200.78 66.66">
  <path d="M200.65 15.87C197.92.19 150.82-4.7 95.45 4.94 72.19 9 51.19 15 34.84 21.69c2.51.06 4.37.63 5.5 1.76a4.9 4.9 0 011.34 3.62v1.55h-5.43v-1.37a1.73 1.73 0 00-1.91-1.85 1.68 1.68 0 00-1.85 1.37 2.67 2.67 0 000 1.08c.58 2.38 8.64 3.85 9.52 8.23a10.53 10.53 0 010 3.5c-.5 3.54-3.61 4.9-7.56 4.9-5.52 0-7.76-2.61-7.76-6.22v-1.7h5.82v2.12a1.83 1.83 0 002 1.86 1.79 1.79 0 002-1.38 2.72 2.72 0 000-1.52C35.5 34.93 28 33.67 27 29.3a7.47 7.47 0 010-2.87 5.7 5.7 0 01.48-1.51C9.33 33.4-1.28 42.73.12 50.79 2.86 66.47 50 71.36 105.33 61.71c24.34-4.23 46.23-10.58 62.88-17.68h-.72c-3.79 0-7.18-1.42-7.53-5.29-.06-.71-.07-1-.07-1.4v-8.88a12.51 12.51 0 01.09-1.4c.44-3.75 3.4-5.29 7.51-5.29 3.17 0 7.07.91 7.49 5.29a12.2 12.2 0 01.05 1.33v.84h-5.48V28a5.35 5.35 0 00-.07-.79 1.85 1.85 0 00-2-1.49 1.89 1.89 0 00-2 1.49 5.14 5.14 0 00-.08 1v9.68a3.46 3.46 0 00.05.79 2.21 2.21 0 004.18 0 5.58 5.58 0 000-.79v-3h-2.16v-3.27h7.63v5.75c0 .39 0 .68-.07 1.4a5.27 5.27 0 01-.92 2.61C191.75 33 202 23.81 200.65 15.87zM57.07 43.65l-2.78-18.87h-.1l-2.85 18.87h-5.86l3.94-21.31H59l3.92 21.31zm28.16 0l-.13-18.51H85l-3.44 18.51h-5.5l-3.42-18.51h-.1l-.13 18.51H67l.47-21.31h8.73l2.55 15.83h.12l2.56-15.83h8.75l.47 21.31zm25.64-4.13c-.59 4.13-4.63 4.85-7.49 4.85-4.75 0-7.68-2-7.68-6.16v-1.68h5.75v2.1a1.81 1.81 0 002 1.83 1.77 1.77 0 002-1.35 2.78 2.78 0 000-1.51c-1.06-2.66-8.53-4-9.44-8.26a7.13 7.13 0 010-2.84c.63-3.9 4.37-4.71 7.38-4.71 2.7 0 4.66.58 5.84 1.76a4.89 4.89 0 011.32 3.58v1.54h-5.38v-1.36a1.71 1.71 0 00-1.88-1.83 1.66 1.66 0 00-1.85 1.35 2.46 2.46 0 000 1.08c.58 2.36 8.57 3.8 9.44 8.15a10.17 10.17 0 01-.01 3.46zm19.92-1.93c0 .4 0 1.19-.06 1.4-.32 3.51-2.84 5.3-7.44 5.3s-7.14-1.79-7.47-5.3c0-.21-.06-1 0-1.4V22.33h5.5v15.74a3.37 3.37 0 000 .79 2 2 0 003.93 0 4.27 4.27 0 000-.8V22.33h5.49zm23.7 5.85h-7.65l-5.14-16.89h-.09l.29 16.89h-5.34v-21.1h8l4.75 16.22h.11l-.28-16.22h5.37z" fill="#c6c6c6"/>
</svg>