<svg data-name="Layer 1" xmlns="http://www.w3.org/2000/svg" viewBox="0 0 148.62 35.92">
  <g fill="#c6c6c6">
    <path d="M56.08 15.82c-.41-1.59-1-4.72-4.38-4.72a2.94 2.94 0 00-3.1 3.1c0 4.78 9.93 4.47 9.93 11.11 0 4.41-3.91 6-7.63 6a11.37 11.37 0 01-5.47-1.25 14.4 14.4 0 01-.9-5.83L46 24c.44 1.86 1.46 6.21 5.43 6.21a3.17 3.17 0 003.26-3.45c0-5.24-9.62-4.84-9.62-11.2 0-3.94 2.92-5.59 6.92-5.59a9.18 9.18 0 014.87 1.15 29.76 29.76 0 01.35 4.75zM71.06 29.75a8.43 8.43 0 01-4.72 1.59c-4.81 0-5-2.8-5-6.24v-4.5c0-1.09 0-2.49-.93-2.49a3.35 3.35 0 00-1 .19v-.9A20.7 20.7 0 0165 16.28V25c0 2.46.47 4.53 3.51 4.53a4.47 4.47 0 002.33-.77V20.6c0-1.09 0-2.49-.93-2.49a3.52 3.52 0 00-1 .19v-.9a20.84 20.84 0 015.65-1.12v9.28c0 2.55 0 3.76 1.06 3.76a4.5 4.5 0 00.87 0l.06.8a38.37 38.37 0 01-4.69 1.25zM79.55 20.6c0-1.09 0-2.49-.93-2.49a3.42 3.42 0 00-1 .19v-.9a20.41 20.41 0 015.58-1.12v1.8a7.06 7.06 0 014.91-1.8c2.79 0 4.68 1.34 4.68 5.53v6.11c0 1.65.16 2 1.28 2.08l.65.06v.81h-7.56v-.81l.65-.06c1.11-.09 1.27-.43 1.27-2.08v-4.41c0-2.45 0-5.43-3.23-5.43a3.4 3.4 0 00-2.57 1.18v8.66c0 1.65.15 2 1.27 2.08l.65.06v.81h-7.51v-.81l.65-.06c1.06-.09 1.21-.43 1.21-2.08zM100.37 30.06l.75-.09c1.46-.28 1.46-.16 1.46-3.69V14.89c0-3 0-3.39-1.46-3.6l-.75-.1v-.8h8.45v.8l-.75.1c-1.46.21-1.46.59-1.46 3.6v14.37a13.18 13.18 0 002.86.43c4.37 0 4.4-2.11 5.3-4.69l1.12.22a22.3 22.3 0 01-1.08 5.65h-14.44zM116.61 30.06l.65-.06c1.12-.12 1.27-.43 1.27-2.08V20.6c0-1.09 0-2.49-.93-2.49a3.42 3.42 0 00-1 .19v-.9a20.84 20.84 0 015.65-1.12v11.64c0 1.65.15 2 1.27 2.08l.65.06v.81h-7.57zM118 11.5a2.13 2.13 0 012.17-2.14 2.17 2.17 0 012.17 2.14 2.17 2.17 0 11-4.34 0zM127.32 16.75c0-4.31 2.15-8.69 7-8.69a5.37 5.37 0 013.38 1 4.09 4.09 0 01-1.24 2.33h-.22c-.59-.56-2-1.8-3.22-1.8-1.87 0-2 2.51-2 5.37v1.77c.93 0 2.82.15 3.85.28v.8c-1.34.16-2.55.25-3.85.32v9.77c0 1.65.15 2 1.3 2.08l1.24.06v.81h-8.16v-.81l.6-.04c1.15-.12 1.3-.43 1.3-2.08V16.75zM148.53 29.35a9.23 9.23 0 01-5.9 2 6.93 6.93 0 01-7.26-7.35c0-4.93 3.57-7.73 7.11-7.73 5 0 5.8 3.26 6.14 5.06a49.63 49.63 0 01-9.34 3c.34 1.86 1.27 5.21 5.53 5.21a7.65 7.65 0 003.41-.89zm-3.63-7.82c-.22-2.24-1.15-4.07-3.1-4.07-2.7 0-2.7 4.84-2.7 5.4a37.46 37.46 0 005.8-1.33z"/>
  </g>
  <g fill="#c6c6c6">
    <path d="M20 2.82a7.22 7.22 0 010-1.61 4 4 0 01.13-.77c0-.06 0-.17.06-.28S20.1 0 20 0a8.5 8.5 0 00-1.87 2.22 5.53 5.53 0 00-.76 2.23 15.85 15.85 0 012.89.63A14.72 14.72 0 0020 2.82zM13.08 4.57a15.64 15.64 0 012.64-.19c0-.12 0-.24-.07-.36A7.24 7.24 0 0015.16 3a10.18 10.18 0 01-.45-1.2 5.21 5.21 0 01-.21-.99 3.13 3.13 0 010-.53V.11c0-.07-.14-.11-.19-.11a6.65 6.65 0 00-1 2.05A6 6 0 0013 3.67a3.42 3.42 0 000 .71c.05.06.06.12.08.19zM8.87 5.68a1.09 1.09 0 00.13.15l.25-.12a17 17 0 012-.71c0-.08-.08-.16-.13-.24a5.68 5.68 0 00-.67-.8A10.41 10.41 0 019.67 3a5.51 5.51 0 01-.4-.76 4 4 0 01-.15-.45.68.68 0 000-.15.08.08 0 00-.16 0 6.06 6.06 0 00-.37 2 5.21 5.21 0 00.11 1.42 3 3 0 00.17.62zM25.3 7.79a15.56 15.56 0 012.5 2.5 17.61 17.61 0 001.28-2.43 9.4 9.4 0 011.06-1.62 5.81 5.81 0 01.64-.67l.22-.24a.13.13 0 000-.23 10.6 10.6 0 00-3.39.9 6.53 6.53 0 00-2.31 1.79zM29.88 13.74c.09.19.16.37.23.56a16.94 16.94 0 002.08-2.24 10 10 0 011.56-1.41 6.78 6.78 0 01.86-.52L35 10a.13.13 0 000-.26 11 11 0 00-3.76.06 7 7 0 00-2.88 1.17 15.57 15.57 0 011.52 2.77zM24.93 4.66A8.52 8.52 0 0125.44 3a5.45 5.45 0 01.39-.76c0-.06.09-.17.16-.28a.11.11 0 00-.13-.17 9.32 9.32 0 00-2.7 1.7 6 6 0 00-1.57 2.11 16.38 16.38 0 012.85 1.55 16.12 16.12 0 00.49-2.49zM33.8 20a6 6 0 00-2.59-.45 15.38 15.38 0 01-.21 3.26 14.5 14.5 0 002.53-.67 8.56 8.56 0 011.75-.31 6 6 0 01.85 0h.32a.12.12 0 00.1-.2A9.46 9.46 0 0033.8 20zM36.62 15.63a10.43 10.43 0 00-3.35-.92 6.59 6.59 0 00-2.89.31 15.62 15.62 0 01.76 3.47A16.33 16.33 0 0033.59 17a9.34 9.34 0 011.74-.85 7.49 7.49 0 01.9-.24l.35-.07a.13.13 0 00.04-.21zM25.86 31.88A16.57 16.57 0 0124 33.29a9.92 9.92 0 001.52 1.07 6.57 6.57 0 011 .85 4.54 4.54 0 01.39.48s.08.11.13.19.16 0 .16 0a6.89 6.89 0 00-.33-2.3 4.43 4.43 0 00-1.01-1.7zM28.84 28.37a16.46 16.46 0 01-1.6 2.13 12.12 12.12 0 002 .66 6.58 6.58 0 011.34.57 3.68 3.68 0 01.58.39l.21.16a.1.1 0 00.16-.09 7.78 7.78 0 00-1.13-2.36 5 5 0 00-1.56-1.46zM32.81 25.21a5.38 5.38 0 00-2.13-1.08 16.22 16.22 0 01-1 2.77A13.2 13.2 0 0032 27a8 8 0 011.6.2 4.87 4.87 0 01.74.23l.28.11a.1.1 0 00.13-.15 8.81 8.81 0 00-1.94-2.18zM12.51 32.77a13.73 13.73 0 01-6.75-.68 15.87 15.87 0 002.66 1.75A15.5 15.5 0 0016 35.57a15.73 15.73 0 003.38-.46 16.68 16.68 0 01-5.2-1.45 17.81 17.81 0 01-1.67-.89zM26.16 26.35a.17.17 0 000-.2c-.07-.08-.19 0-.19 0a24 24 0 01-5.46 4c-.4.22-.8.42-1.2.61a23.62 23.62 0 01-5.26 1.77c.51.29 1 .55 1.57.79a18.17 18.17 0 005.1 1.4 15.06 15.06 0 002.06-.89 28.82 28.82 0 01-2.72-2.31 18 18 0 006.1-5.17zM1.72 23.43l.38.18a7.05 7.05 0 001.57.51 10.43 10.43 0 001.54.2c-.22-.52-.42-1.06-.6-1.61A17.64 17.64 0 014 20.08q-.07-.45-.12-.9c0-.26 0-.51-.07-.77s0-.27 0-.4v-1.54A4.84 4.84 0 012.23 16l-.17-.09a2.63 2.63 0 01-.69-.58 2.42 2.42 0 01-.25-.4 2.83 2.83 0 01-.12-.4 15.4 15.4 0 00-.57 1.9c-.06.26-.12.52-.16.78a14 14 0 00-.27 1.6V20.4c0 .41.06 1 .12 1.53a4.21 4.21 0 001.6 1.5zM6.28 16.47a9.64 9.64 0 01-1.17.07v2.06a19.38 19.38 0 00.5 2.81 18.09 18.09 0 001 2.91 22.65 22.65 0 006.87-1.52 49.28 49.28 0 01-2.49-5.23c-.13-.31-.25-.61-.36-.91.45-.18.9-.37 1.36-.59a17.5 17.5 0 006.41-4.85c.09-.11.16-.23.24-.34a.16.16 0 000-.21.14.14 0 00-.19 0c-.25.24-.51.49-.8.73a22.33 22.33 0 01-4.88 3.08 24.57 24.57 0 01-2.56 1 19.47 19.47 0 01-2.43.68c-.47.17-1 .26-1.5.31zM2.16 14.34a2.87 2.87 0 00.87.52l.3.11a5.09 5.09 0 00.59.14c0-.24.06-.47.1-.71s.06-.38.1-.56A18.3 18.3 0 014.57 12a19.14 19.14 0 011.52-3.68c.17-.32.35-.64.54-1a2.33 2.33 0 00.17-.26 16.71 16.71 0 00-1.33 1A16.37 16.37 0 003.66 10a16.21 16.21 0 00-2.1 3.24 1.88 1.88 0 00.16.56 2.07 2.07 0 00.44.54zM5.48 12.71l-.12.7c-.09.6-.16 1.2-.2 1.82a13.37 13.37 0 003-.34c.56-.13 1.15-.28 1.74-.47-.07-.21-.13-.41-.2-.61-.28-.86-.53-1.69-.75-2.45q-.11-.4-.21-.78c-.12-.43-.22-.84-.32-1.23-.18-.76-.33-1.43-.45-2l-.13-.67v-.14l-.13.23c-.18.31-.34.63-.5 1A19.92 19.92 0 005.91 11c-.17.53-.31 1.12-.43 1.71zM11 31.74a18.31 18.31 0 01-4.27-4.59 15.6 15.6 0 01-.81-1.38 10.84 10.84 0 01-2.86-.37 6.49 6.49 0 01-1.26-.5l-.34-.19a4.59 4.59 0 01-.95-.79 17.31 17.31 0 00.74 2.17l.15.34a11.78 11.78 0 00.6 1.12c.18.32.36.64.57.95A15.12 15.12 0 003.65 30C5.33 31.37 8 32 11 31.74z"/>
    <path d="M16.45 23c-.73.36-1.47.68-2.2 1a24.69 24.69 0 01-6.87 1.7c.25.45.51.89.8 1.31a17 17 0 004.37 4.53 24 24 0 005.92-1.72 36.68 36.68 0 01-3.54-4.71c.41-.18.82-.37 1.23-.58a20.7 20.7 0 008.17-6.8.17.17 0 000-.21.14.14 0 00-.2 0A26.69 26.69 0 0116.45 23z"/>
  </g>
</svg>