<svg data-name="Layer 1" xmlns="http://www.w3.org/2000/svg" viewBox="0 0 819.24 156.3">
  <path fill="#c6c6c6" d="M487.54 43.29V26.45h-60.02v86.59h60.02V95.48h-35.72v-19.2h29.71v-16.8h-29.71V43.29h35.72zM593.42 95.96h-37.51V26.45H531.3v86.59h62.12V95.96zM791.58 59.45c-16.6-3.75-22.41-4.17-22.41-10.78 0-6.13 8.22-8 13-8A57 57 0 01808 47.15l6.69-15.94c-9.44-5.15-21.55-7.29-33.19-7.29-22.91 0-38.26 9.29-38.91 27.4C742 67.83 755.4 74 767.75 76.57c11.89 2.45 24 4.55 24.21 11.63.22 6.52-5.64 9.3-16.71 9.3-10.24 0-19.76-3.29-29.5-7.36l-5.68 17.31a86.77 86.77 0 0034.26 7.38c16.26 0 28.12-2.53 36.87-10.74a24.87 24.87 0 008-18.92c0-13.68-8.53-21.4-27.66-25.72zM392.61 43.54V26.45h-75.52v17.09h25.52v69.5h24.46v-69.5h25.54zM677.36 26.45v55a44.63 44.63 0 01-.26 7.17c-.79 5.26-5.87 8.29-14 8.4-6-.1-10.39-1.87-12.44-5-1-1.62-1.54-4.51-1.54-9.13V26.45h-25.49v59.67c0 8.27 1.11 12 4.84 16.72 6.16 7.71 18.17 11.75 34.7 11.75h.9c22.14 0 33.57-8.63 36.89-16.71 1.64-3.91 1.76-5.78 1.76-13.67V26.45zM328.62 2.74l-143.1 28.49v10l.46-.12C280.51 18.11 328.62 4.3 329 4.2a.78.78 0 00.65-.91.81.81 0 00-1-.55z"/>
  <path d="M208.53 10.71c2.2-1.43 2.83-.55 2.19 1.07-1.05 2.57-5.9 18-41.92 47.62-9.4 7.71-16.09 12-29.63 20 22.16-31.06 54.53-59.11 69.36-68.73zM212.27 0c-7 .39-19.84 10.69-26.9 16.82-28.16 24.37-49.09 46.77-64.31 70.18-31.74 17-72.19 34.5-112.36 48.15l-1 .33L0 156.3l4.41-1.71a1071 1071 0 00106.87-48.36 45.85 45.85 0 00-3.27 16 27.11 27.11 0 001.82 10.07 23.84 23.84 0 0013.86 13.41c9.9 3.94 23.4 4 38.8-.64 39.35-11.93 86-48.55 96.18-55.83l.39-.27a.77.77 0 00.25-1 .79.79 0 00-1.07-.2l-.5.31c-10.91 6.53-63.9 38-98.34 47.24-17.54 4.71-30.91 2.13-36-4.93a15 15 0 01-2.59-9c0-6.93 3.27-15.78 9.57-25.6 5.78-3.3 11.19-6.53 16.07-9.59 33.6-18.88 72.32-55.6 74-78v-.5a7.81 7.81 0 00-2.31-5.4 7.48 7.48 0 00-5.87-2.3zm-4.89 8.91z" fill="#c6c6c6"/>
  <path fill="#c6c6c6" d="M185.05 31.33L34.49 63.69l-5.81 15.66 156.84-38.14.24-.06v-9.97l-.71.15z"/>
</svg>