<svg data-name="Isolation Mode" xmlns="http://www.w3.org/2000/svg" viewBox="0 0 247.1 87.3">
  <path d="M29.2 67.7v-9.5H0c0-11.3 9.4-20.3 20.5-22.8s21.4 2.8 22.3 12c.8 7.8-5 16-13.6 20.3M0 38.8v-9.7h27.2a58.26 58.26 0 00-7.2.6 44.68 44.68 0 00-20 9.1m29.2-9.7V0h29.1v29.1h29.1v29.1H58.3v29.1H29.2C48 80.8 60.7 63.9 58 48.7c-2.2-12.4-14.4-19.2-28.8-19.6z" fill="#c6c6c6" fill-rule="evenodd"/>
  <g fill="#c6c6c6">
    <path d="M121.5 4.6h-4.9V2.2h12.3v2.4H124v14.8h-2.5zM130.9 2.2h2.5v6.9a4.61 4.61 0 013.6-1.7c3 0 4.8 1.9 4.8 5.1v6.9h-2.6v-6.6c0-2-.9-3.2-2.8-3.2a3 3 0 00-3 3.3v6.5h-2.5zM143.8 13.6a6.08 6.08 0 016.1-6.2 5.78 5.78 0 016 6v1h-9.7a3.86 3.86 0 007.2.9l2.1 1.2a6.25 6.25 0 01-11.7-2.9zm2.5-1.3h7.1a3.29 3.29 0 00-3.5-2.6 3.55 3.55 0 00-3.6 2.6zM163.4 10.8a8.8 8.8 0 118.8 8.8 8.75 8.75 0 01-8.8-8.8zm15.1 0a6.25 6.25 0 10-12.5 0 6.25 6.25 0 1012.5 0zM182.6 7.6h2V4.8l2.5-1.4v4.2h2.5v2.3h-2.5v4.7c0 2.1.3 2.4 2.5 2.4v2.4h-.4c-3.6 0-4.7-1.1-4.7-4.8V9.9h-2V7.6zM191.2 7.6h2V4.8l2.5-1.4v4.2h2.5v2.3h-2.5v4.7c0 2.1.3 2.4 2.5 2.4v2.4h-.4c-3.6 0-4.7-1.1-4.7-4.8V9.9h-2V7.6zM200 13.5a5.83 5.83 0 015.9-6.1 5 5 0 013.9 1.8V7.7h2.5v11.8h-2.5v-1.6a4.93 4.93 0 01-3.9 1.9 6.07 6.07 0 01-5.9-6.3zm9.9 0a3.7 3.7 0 10-7.4 0 3.7 3.7 0 107.4 0zM214.2 7.6h2.6l2.7 8.4 3.1-8.4h2.5l3 8.4 2.8-8.4h2.6l-4.1 11.8H227l-3.1-8.4-3.2 8.4h-2.5zM234.8 13.5a5.83 5.83 0 015.9-6.1 5 5 0 013.9 1.8V7.7h2.5v11.8h-2.5v-1.6a4.93 4.93 0 01-3.9 1.9 6.14 6.14 0 01-5.9-6.3zm10 0a3.7 3.7 0 10-7.4 0 3.7 3.7 0 107.4 0zM131.8 35.7H124v7.4h-2.6V25.9h2.6v7.3h7.8v-7.3h2.5v17.2h-2.5zM136.6 37.2a6.1 6.1 0 116.1 6.1 6.06 6.06 0 01-6.1-6.1zm9.7 0a3.61 3.61 0 10-3.6 3.8 3.7 3.7 0 003.6-3.8zM149.8 40.6l2.3-1.2a3.29 3.29 0 003 1.7c1.4 0 2.1-.7 2.1-1.6s-1.4-1.2-2.8-1.5c-2-.4-4.1-1.1-4.1-3.5 0-1.9 1.8-3.6 4.5-3.6a5.31 5.31 0 014.7 2.3l-2.1 1.2a3 3 0 00-2.6-1.3c-1.3 0-2 .7-2 1.4s1.1 1.1 2.8 1.5c1.9.4 4.1 1.1 4.1 3.5 0 1.6-1.4 3.8-4.8 3.8a5.18 5.18 0 01-5.1-2.7zM164.2 41.7v6.9h-2.5V31.4h2.5V33a4.93 4.93 0 013.9-1.9 6.11 6.11 0 01.1 12.2 4.8 4.8 0 01-4-1.6zm7.3-4.5a3.7 3.7 0 10-3.7 3.8 3.71 3.71 0 003.7-3.8zM176 26.4h2.5v3.3H176zm0 5h2.5v11.8H176zM180.1 31.4h2v-2.8l2.5-1.4v4.2h2.5v2.3h-2.5v4.7c0 2.1.3 2.4 2.5 2.4v2.4h-.4c-3.6 0-4.7-1.1-4.7-4.8v-4.7h-2v-2.3zM188.2 37.2a5.83 5.83 0 015.9-6.1 5 5 0 013.9 1.8v-1.5h2.5v11.8H198v-1.6a4.93 4.93 0 01-3.9 1.9 6.14 6.14 0 01-5.9-6.3zm10 0a3.7 3.7 0 10-3.7 3.8 3.71 3.71 0 003.7-3.8zM203.1 25.9h2.5v17.2h-2.5z"/>
  </g>
</svg>